<svg preserveAspectRatio="none" overflow="visible" style="display: block;" width="85" height="54" viewBox="0 0 85 54" fill="none" xmlns="http://www.w3.org/2000/svg">
<g id="Vector">
<path d="M20.324 34.1344C19.6515 34.6073 19.0026 35.1344 18.4089 35.6546C17.8205 36.2298 17.2347 36.8242 16.7995 37.458C16.6392 37.6958 16.4159 37.8654 16.1821 38.1101C16.1217 38.2456 16.0272 38.4021 15.9562 38.6119C15.8888 38.674 15.7294 38.7457 15.6436 38.8095C15.5893 38.9992 15.5158 39.1915 15.4816 39.3978C15.3704 39.5753 15.3117 39.7282 15.2172 39.8856C15.3398 40.0018 15.4676 39.9896 15.6287 39.9363C15.9361 39.8681 16.1498 39.7912 16.4387 39.7256C16.6357 39.6688 16.8538 39.6286 17.0324 39.5735C17.7925 39.4231 18.4965 39.2597 19.2443 39.1661C19.9203 39.098 20.5569 38.9966 21.2119 39.0787C21.3818 39.1172 21.5701 39.153 21.7058 39.2133C22.1305 39.3917 22.5175 39.5744 22.8836 39.7212C23.1667 40.0861 23.3231 40.4759 23.3529 40.8909C23.3144 41.0605 23.035 41.2178 23.1471 41.4093C22.8695 41.7694 22.7216 42.134 22.4238 42.4775C22.0097 42.9434 21.5981 43.4461 21.0902 43.9024C20.3976 44.5441 19.7216 45.1647 18.7575 45.6674C18.4921 45.7863 18.2128 45.9436 17.9737 46.1333C17.8459 46.1464 17.7146 46.1228 17.6226 46.1316C17.6121 46.2067 17.5263 46.2706 17.4641 46.3868C17.3179 46.4017 17.1384 46.4568 16.9431 46.5319C16.8004 46.5835 16.7163 46.6657 16.634 46.7662C16.3249 46.816 16.0342 46.8632 15.711 46.9515C14.8503 47.0197 14.1462 46.8143 13.4965 46.4192C13.2767 46.2566 13.127 46.0511 13.1681 45.7329C13.2189 45.691 13.2321 45.6342 13.303 45.6088C13.4694 45.6106 13.5429 45.6027 13.6375 45.6307C13.8529 45.7565 14.0526 45.9025 14.2872 46.0258C14.6349 45.9908 14.9011 45.8903 15.183 45.7513C16.1366 45.323 16.9352 44.8186 17.7487 44.2757C18.7478 43.5667 19.6103 42.7791 20.3976 41.981C20.9291 41.3927 21.3669 40.7956 21.5219 40.1347C21.5692 40.056 21.6007 39.9975 21.6296 39.9214C21.6279 39.9031 21.5876 39.8707 21.5797 39.7973C21.4133 39.7955 21.3021 39.7886 21.2268 39.7772C20.6988 39.8489 20.2776 39.8908 19.8792 39.9686C19.4475 40.0858 19.035 40.2012 18.6839 40.1994C17.803 40.6199 16.8433 40.8087 15.9291 41.0858C15.7075 41.0893 15.4834 41.057 15.2452 41.0806C14.5245 41.0797 13.9081 40.8279 13.3783 40.5132C13.162 40.3874 12.9554 40.1688 12.9352 39.9678C12.8468 39.4607 12.8757 39.0149 13.1244 38.5472C13.1865 38.4301 13.2469 38.2955 13.2723 38.1818C13.4948 37.6433 13.7776 37.1538 14.2548 36.7552C14.4011 36.5559 14.4921 36.3627 14.6419 36.2001C14.9212 35.8583 15.1664 35.5392 15.4694 35.2498C16.8249 33.8599 18.4396 32.664 20.3879 31.657C20.6147 31.5232 20.8573 31.3703 21.1445 31.2855C21.62 31.0529 22.113 30.8195 22.866 30.7802C23.0692 30.7784 23.3547 30.8597 23.6121 31.0372C23.923 31.1902 24.254 31.3598 24.5464 31.5145C24.6436 31.5599 24.74 31.6054 24.8188 31.6526C25.2907 31.9367 25.5289 32.282 25.317 32.7453C25.2916 32.859 25.2846 32.97 25.2364 33.0487C25.0797 33.3223 24.9606 33.6108 24.6524 33.845C24.627 34.1423 24.3914 34.3695 24.1174 34.5811C23.9825 34.7052 23.9273 34.8949 23.8293 35.0156C23.3634 35.5235 22.9492 35.9894 22.4816 36.4789C22.0289 36.93 21.4203 37.305 20.9913 37.8094C20.993 37.8278 20.8485 37.861 20.7977 37.903C20.0587 37.903 19.3477 37.9939 18.8941 37.5236C19.5044 36.798 20.1174 36.11 20.7662 35.3993C21.1384 34.8827 21.5096 34.3477 21.8818 33.8302C21.9948 33.6711 22.1646 33.5251 22.3091 33.3074C22.3056 33.2707 22.331 33.1579 22.3196 33.0478C22.2268 33.039 22.1314 33.0111 22.0946 33.0154C21.8442 33.0959 21.6121 33.1745 21.3801 33.2532C21.141 33.6274 20.7426 33.8887 20.324 34.1344ZM17.6988 35.026C18.0368 34.7157 18.3801 34.4596 18.7014 34.1694C19.2023 33.8241 19.5692 33.4368 19.993 33.0618C20.0438 33.0198 20.0385 32.9647 20.0552 32.9446L19.9273 32.9578C18.8459 33.5828 18.0254 34.4211 17.1979 35.1869C17.0096 35.3346 16.8652 35.5523 16.9203 35.7306C16.9019 35.7324 16.8328 35.7761 16.8328 35.7761C16.8328 35.7761 16.9019 35.7324 16.9002 35.714C17.1576 35.5217 17.4667 35.2892 17.6988 35.026Z" fill="white"/>
<path d="M32.6077 38.9074C32.7032 38.9345 32.7671 39.0201 32.8678 39.1023C32.747 39.3724 32.6436 39.6225 32.6524 39.8987C32.6655 40.0263 32.6034 40.1435 32.5245 40.2798C32.3696 40.5718 32.1725 40.8131 32.0552 41.1199C31.9571 41.425 31.838 41.7135 31.6795 41.9687C31.3249 42.4836 31.0666 43.0265 30.7102 43.523C30.4125 43.8666 30.1935 44.2573 29.8555 44.5677C29.6857 44.7136 29.5193 44.8963 29.331 45.045C29.0386 45.2591 28.7076 45.4584 28.3424 45.4952C28.1927 45.4733 28.0315 45.5266 27.8871 45.5598C26.9422 45.7102 26.106 45.4812 25.3065 45.0642C24.7032 44.7565 24.3731 44.2363 24.1664 43.6489C24.0237 43.3316 23.9335 42.9898 23.9002 42.662C23.7732 41.9556 23.7942 41.2528 23.8503 40.5281C23.9168 39.7282 24.0832 38.993 24.3196 38.2316C24.535 37.6197 24.8065 37.0209 25.0622 36.4422C25.2741 35.978 25.5237 35.5296 25.7724 35.0619C25.9843 34.5977 26.2907 34.1615 26.599 33.7436C26.7417 33.6921 26.866 33.6431 27.0062 33.5732C26.9746 33.4473 26.9273 33.3415 26.8958 33.2156C27.6682 32.0871 28.4554 30.92 29.7618 30.1429L30.1638 30.1027C30.3118 30.1062 30.4457 30.1482 30.6156 30.1866C30.859 30.0328 30.9571 29.7286 31.3266 29.7277C31.5858 29.7382 31.7785 29.9952 32.0289 30.0992C32.2995 30.2198 32.5499 30.323 32.803 30.4454C32.8704 30.5678 32.8967 30.6386 32.9641 30.7609C32.831 31.0879 32.7198 31.4489 32.5867 31.7759C32.331 32.3546 32.0964 32.9499 31.8976 33.5417C31.8249 33.7331 31.7277 33.8721 31.5745 34.1825C31.5791 34.1085 31.5826 34.0834 31.585 34.1073C31.4125 34.9544 31.0526 35.7831 30.8958 36.61C30.2286 36.7691 29.6822 36.659 29.1953 36.228C28.8766 35.4491 29.2233 34.6764 29.31 33.8931C29.2513 33.8625 29.1944 33.8494 29.1182 33.8206C29.0639 34.0103 29.0254 34.1798 28.9466 34.3171C28.8897 34.4884 28.7715 34.5925 28.6787 34.7682C28.4484 35.2341 28.1988 35.6834 27.9851 36.1284C27.4265 37.18 27.099 38.3199 26.7119 39.4275C26.6813 39.4861 26.6883 39.5586 26.6935 39.6137C26.6769 39.8183 26.6997 40.0368 26.6287 40.2475C26.4536 40.8918 26.5018 41.5509 26.4589 42.2188C26.4606 42.4216 26.4484 42.662 26.4379 42.9216C26.4729 43.0842 26.5114 43.2826 26.5867 43.4784C26.6655 43.7101 26.7277 43.9619 26.8249 44.1918C26.8906 44.2958 26.993 44.3963 27.0937 44.4785C27.4466 44.3141 27.6822 44.0877 27.9527 43.8386C28.3634 43.5204 28.7067 43.0807 29.0342 42.6602C29.7084 41.8367 30.2995 40.9285 30.8713 40.0045C31.0429 39.6924 31.1795 39.4022 31.254 39.0437C31.3013 38.9651 31.3266 38.8523 31.3748 38.7736C31.4055 38.7151 31.4238 38.7133 31.4913 38.6512C31.8494 38.7256 32.2294 38.8165 32.6077 38.9074ZM28.2137 32.8966C27.958 33.1064 27.7645 33.3843 27.6112 33.6947C27.3739 34.0872 27.1935 34.4928 26.9948 34.9002C26.4273 36.0453 26.0167 37.2849 25.6217 38.486C25.4081 39.1163 25.2522 39.7588 25.1533 40.4319C25.1261 40.7108 25.1007 41.0089 25.1139 41.321C25.2251 41.328 25.3039 41.3752 25.3809 41.4049C25.4265 41.3079 25.4921 41.2274 25.521 41.1514C25.69 40.2676 25.9694 39.3733 26.2496 38.4965C26.5815 37.5778 26.8932 36.6433 27.359 35.7665C27.6533 35.2026 27.9247 34.6029 28.2163 34.0207C28.3372 33.7506 28.4773 33.4962 28.6962 33.2899C28.8188 33.2226 28.923 33.1562 29.0631 33.0871C28.7995 32.8555 28.5683 32.7497 28.2137 32.8966Z" fill="white"/>
<path d="M33.9405 35.1039C33.9186 35.2533 33.8398 35.3906 33.8021 35.5602C33.7855 35.5803 33.7715 35.6187 33.7365 35.6406C33.5394 36.0663 33.5412 36.0847 33.6883 36.6223C33.4562 36.701 33.2146 36.6887 33.014 36.7088C32.6296 36.5628 32.1962 36.4781 31.9746 36.1126C31.9247 35.6196 32.0272 35.1668 32.2583 34.7201C32.5797 34.061 32.9991 33.4656 33.4948 32.8808C34.4002 31.7942 35.4878 30.8545 36.7391 30.0835C37.8687 29.3798 39.106 28.8308 40.4527 28.6402C40.8188 28.6035 41.1471 28.5703 41.5149 28.5519C41.9773 28.5607 42.3801 28.704 42.7163 28.9287C42.9361 29.0913 43.1375 29.2547 43.3748 29.4156C43.9326 29.8203 44.1743 30.3859 44.148 31.0337C44.1428 31.532 44.0832 32.0355 43.8713 32.4997C43.7767 32.657 43.7251 32.8834 43.6673 33.0364C43.634 33.0766 43.6165 33.0784 43.585 33.137C43.3967 33.1002 43.2137 33.1195 43.0149 33.1579C42.8354 33.213 42.6489 33.1947 42.4098 33.2008C42.4904 33.2663 42.5342 33.3354 42.5526 33.3336C42.7995 33.401 43.0447 33.4499 43.2347 33.505C43.3844 33.7113 43.2881 33.8503 43.2093 33.9867C42.6323 34.8565 41.895 35.9632 41.0403 36.8233C40.5762 37.3496 40.1305 37.8741 39.6445 38.3654C39.6279 38.3855 39.5972 38.4441 39.5806 38.4642C39.3485 38.7273 39.014 38.8899 38.81 39.2422C38.6349 39.5184 38.3477 39.7868 38.078 40.0351C37.9282 40.1977 37.7732 40.3052 37.6209 40.4494C37.5018 40.5535 37.3836 40.6575 37.31 40.8498C37.4309 40.9486 37.5149 41.05 37.6156 41.1322C38.6515 42.0605 39.7198 42.9478 40.9344 43.6367C41.3056 43.8386 41.6901 43.9846 42.0753 44.1481C42.4046 44.2993 42.7794 44.3535 43.1524 44.3902C43.282 44.3954 43.3958 44.4208 43.4869 44.4121C43.5964 44.5851 43.4948 44.6691 43.3923 44.7539C43.2225 44.8998 43.0307 45.0117 42.7951 45.0537C42.2338 45.1656 41.6436 45.17 41.0745 45.024C40.4107 44.8509 39.7872 44.5266 39.2198 44.2154C38.1226 43.5886 37.1086 42.8796 36.1594 42.0719C36.1209 42.057 36.0666 42.0632 36.0263 42.0299C35.993 42.0701 35.9221 42.0955 35.9273 42.1506C35.9098 42.5212 35.93 42.9059 35.93 43.2748C35.9177 43.7005 36.0114 44.0781 36.2312 44.4243C36.2767 44.5117 36.2846 44.5851 36.2916 44.6577C35.7601 44.8771 35.2496 44.7626 34.754 44.6096C34.5053 44.524 34.359 44.3544 34.2251 44.128C34.0368 43.7232 33.937 43.2905 33.8932 42.8525C33.8319 42.2502 33.7365 41.6698 33.7872 41.0745C33.8048 40.5194 33.7496 39.9721 33.789 39.452C33.7899 38.7325 33.8319 38.0463 33.8547 37.3618C33.909 36.6188 34.0053 35.9273 34.1743 35.228C34.2198 35.1309 34.1725 35.0252 34.1611 34.9159C34.1979 34.9124 34.2146 34.8923 34.2146 34.8923C34.2146 34.8923 34.1979 34.9124 34.2014 34.9491C34.1156 35.0129 34.028 35.0575 33.9405 35.1039ZM35.7513 34.2026C35.6717 34.6904 35.6095 35.1755 35.5263 35.6266C35.4449 36.096 35.4738 36.5725 35.1839 36.9886C35.1708 37.0454 35.1804 37.1363 35.1655 37.1748C35.1226 37.8426 35.0263 38.535 35.0009 39.2011C34.9668 39.7763 34.9492 40.3305 34.9309 40.8856C34.9361 40.9407 34.9597 40.9932 34.9641 41.0299C35.085 41.1287 35.2058 41.2266 35.3993 41.1339C35.4869 40.904 35.521 40.6977 35.4956 40.4424C35.4606 40.0954 35.4238 39.7309 35.4055 39.3637C35.4125 38.8838 35.3844 38.4257 35.4466 37.9397C35.5788 36.6914 35.7478 35.4387 35.9387 34.2209C35.9773 34.0513 35.9641 33.9237 35.951 33.7961C36.0534 33.7122 36.0806 33.6169 35.9344 33.4473L35.9694 33.7943C35.7943 33.8861 35.7916 34.0513 35.7513 34.2026ZM36.0394 33.2148C36.1217 33.1142 36.0832 33.0994 36.0044 33.0522C35.9562 32.7619 36.1375 32.5408 36.24 32.2724C36.1191 32.1736 36.0298 32.2016 35.9475 32.3021C35.8634 32.3843 35.7645 32.5049 35.7233 32.6378C35.5885 33.1308 35.4886 33.602 35.3722 34.0924C35.3617 34.1676 35.3722 34.2769 35.4729 34.3591C35.5622 34.1475 35.6174 33.9578 35.7067 33.7454C35.7925 33.4971 35.8231 33.2541 36.0062 33.0513C36.0298 33.1046 36.0351 33.1588 36.0412 33.2139L36.0394 33.2148ZM36.7925 39.0201C37.2198 38.4974 37.6323 38.014 38.064 37.5279C39.4992 35.8347 40.7978 34.0627 41.8231 32.1526C42.1042 31.6447 42.3144 31.1631 42.4466 30.6517C42.4957 30.4069 42.5447 30.1621 42.5797 29.9558C42.5981 29.7696 42.5447 29.6088 42.3512 29.5179C41.9764 29.4637 41.5499 29.4514 41.1594 29.6009C40.9475 29.6962 40.7154 29.7749 40.5105 29.7583C40.1927 29.7163 39.9107 29.8553 39.6822 29.9707C39.4738 30.1027 39.183 30.1499 39.0228 30.3877C38.9238 30.5083 38.7435 30.545 38.6025 30.6141C38.5316 30.6394 38.4256 30.6875 38.3941 30.7461C38.2811 30.9052 38.0359 30.8562 37.8827 30.9821C37.7951 31.0276 37.7312 31.1264 37.6673 31.2251C37.5867 31.344 37.3617 31.3108 37.3844 31.5302C37.5307 31.6998 37.8126 31.7453 37.8442 32.0556C37.7233 32.3257 37.585 32.5976 37.43 32.8904C37.3337 33.2139 37.2916 33.5312 37.1585 33.8582C36.9545 34.5793 36.754 35.3373 36.6454 36.0855C36.6034 36.4029 36.5622 36.7211 36.4816 37.0235C36.2811 37.7814 36.2513 38.5769 36.1436 39.3436C36.113 39.4022 36.1752 39.4695 36.1857 39.5787C36.465 39.4214 36.6261 39.1836 36.7943 39.0193L36.7925 39.0201Z" fill="white"/>
<path d="M45.0894 38.5158C44.5657 39.5455 43.9685 40.5832 43.4852 41.6453C43.416 41.8735 43.2461 42.0194 43.1366 42.2153L43.1568 42.4163C42.9265 42.5134 42.6979 42.6287 42.4624 42.6707C42.155 42.7389 41.8223 42.7354 41.5246 42.5256C41.4151 42.3525 41.4361 42.203 41.5149 42.0658C41.7391 41.5456 41.9965 40.9844 42.2408 40.4809C42.3958 40.1889 42.5491 39.8786 42.7058 39.6041C42.7531 39.5254 42.7443 39.4345 42.7899 39.3375C42.5342 39.3637 42.3529 39.3995 42.1358 39.4406C41.7881 39.2911 41.4282 39.1985 41.0841 39.0857C40.9615 38.785 40.9852 38.653 41.2058 38.4651C41.564 38.1705 41.9291 37.9493 42.3976 37.8287C42.8801 37.6696 43.3809 37.5087 43.9002 37.3452C43.951 37.3033 44.0149 37.2045 44.0806 37.1241C44.895 35.6773 45.7689 34.2804 46.6804 32.88C47.3818 31.7767 48.099 30.6534 48.8004 29.5502C49.0885 29.1158 49.4081 28.6227 49.7111 28.1498C49.7916 28.0309 49.8862 27.8736 50.0859 27.8351C50.1428 27.8482 50.2338 27.8386 50.3126 27.8858C50.7172 28.0475 51.1042 28.2302 51.5289 28.4085C51.5806 28.551 51.648 28.6734 51.7522 28.7914C51.6445 29.1892 51.5578 29.6035 51.4685 30.0004C51.1717 31.2654 50.9843 32.5198 50.7811 33.7943C50.599 34.9185 50.472 36.0375 50.3109 37.1791C50.3162 37.2342 50.2671 37.2945 50.2724 37.3487C50.2951 38.1206 50.0745 38.8619 50.0035 39.6251C49.9668 39.813 49.986 39.9957 49.9493 40.1837C49.8564 40.9119 49.7461 41.6418 49.6918 42.3848C49.6682 42.7004 49.5718 43.0239 49.5333 43.3779C48.9653 43.6069 48.343 43.602 47.6664 43.3631C47.5272 43.266 47.4563 43.1078 47.4379 42.9251C47.4116 42.6698 47.3696 42.4338 47.3626 42.1768C47.4221 41.1199 47.388 40.0543 47.4799 38.9572C47.5035 38.6416 47.5307 38.3619 47.5526 38.028C47.5456 37.9545 47.5377 37.882 47.5246 37.7543C46.3801 37.9432 45.5937 38.2072 45.0894 38.5158ZM47.7365 36.2027C47.7838 35.7551 47.8512 35.325 47.9177 34.894C47.9782 34.575 48.0561 34.2533 48.0981 33.936C48.127 33.859 48.169 33.7262 47.9992 33.6877C47.3617 34.6921 46.7067 35.6983 46.071 36.7211L46.0859 36.8671C46.5718 36.9283 47.0543 36.7692 47.6288 36.7849C47.6612 36.5602 47.6979 36.3723 47.7365 36.2027ZM48.7592 38.6434L48.8013 39.063C48.8217 38.901 48.8077 38.7611 48.7592 38.6434ZM49.4983 33.3511L49.5184 33.3677C49.5167 33.3494 49.5491 33.3092 49.5491 33.3092C49.5473 33.2908 49.5105 33.2943 49.4922 33.2961L49.4983 33.3511ZM49.6016 32.9167L49.5832 32.9184C49.585 32.9368 49.5482 32.9403 49.5526 32.977C49.5526 32.977 49.5894 32.9735 49.6095 32.9901L49.6016 32.9167ZM49.7549 32.2383C49.7645 32.3292 49.733 32.3878 49.7365 32.4245C49.6874 32.4848 49.6174 32.5285 49.6997 32.6125C49.6927 32.5399 49.7233 32.4813 49.7181 32.4263C49.7689 32.3843 49.8573 32.3388 49.7549 32.2383ZM49.7268 31.7802C49.7689 31.8309 49.7943 31.9026 49.8792 32.0049C49.9116 31.7802 49.9703 31.6273 50.007 31.4393C50.0438 31.2514 50.1909 31.0704 50.1673 30.8335C49.9992 30.9979 49.8518 31.3128 49.7268 31.7802Z" fill="white"/>
<path d="M53.4633 42.981L53.4081 42.9863C53.0841 42.8901 52.761 42.7931 52.4186 42.6987C52.3415 42.6698 52.2794 42.6016 52.2049 42.5912C51.8976 42.106 51.9002 41.5894 51.9204 41.0526C52.0972 38.6014 52.4405 36.1511 52.9169 33.7436C53.1366 32.6334 53.4011 31.5932 53.7969 30.5756C53.8713 30.4025 53.9134 30.2688 53.9685 30.0791C53.8573 30.0721 53.782 30.0607 53.7093 30.0686C53.5281 30.1053 53.3512 30.1788 53.1734 30.2513C52.817 30.3798 52.4151 30.42 52.1279 30.6884C52.0421 30.7522 51.9326 30.7636 51.8249 30.7924C51.7496 30.7819 51.6752 30.7706 51.5613 30.7452C51.437 30.7942 51.5246 30.9332 51.4808 31.0486C51.3091 31.1762 51.1717 31.2828 51.0535 31.3869C50.3661 31.1613 49.8827 30.7671 49.7137 30.01C49.9142 29.621 50.2417 29.385 50.5543 29.1883C51.064 28.9339 51.5561 28.6822 52.0727 28.5003C52.6226 28.2792 53.1638 28.1507 53.7216 28.0021C54.7303 27.7529 55.7689 27.6113 56.8022 27.4155C57.7619 27.2267 58.7102 27.1121 59.7102 26.9565C59.9843 26.9286 60.2829 26.9539 60.5824 26.8132C60.7794 26.7564 62.1165 26.8245 62.3433 26.8752C62.402 26.9058 62.4606 26.9373 62.5395 26.9845C62.7391 27.315 62.9221 27.6646 63.071 28.037C63.1367 28.1411 63.1332 28.2888 63.1113 28.4383C63.1183 28.5117 63.0508 28.5738 63.0036 28.6516C62.7496 28.5117 62.5333 28.3858 62.3381 28.2765C62.0219 28.2529 61.7619 28.2425 61.4291 28.239C61.3416 28.2844 61.1822 28.3561 61.0088 28.4654C60.9318 28.4365 60.8205 28.4287 60.7435 28.3998C59.592 28.7005 58.4405 28.8159 57.3468 29.1481C57.1787 29.3124 57.0307 29.4934 56.8993 29.6542C56.8302 30.2513 56.4747 30.7478 56.3503 31.3501C56.2225 31.9157 56.0018 32.4726 55.7943 33.1579C55.7759 33.1597 55.7137 33.2768 55.6139 33.3791C55.7374 34.0487 55.4869 34.6825 55.3345 35.3617C55.1857 36.0777 55.0211 36.8312 54.8757 37.5839C54.6226 38.9187 54.3722 40.2711 54.1375 41.6033C54.0701 42.0343 54.0561 42.4408 54.0307 42.9233C53.8293 42.9434 53.6463 42.9627 53.4633 42.981ZM53.3871 37.1083C53.3021 38.0944 53.2522 39.0577 53.1866 40.0595C53.1795 40.1706 53.1901 40.2807 53.275 40.3821L53.4212 40.3673C53.4335 39.9415 53.4458 39.5167 53.458 39.091C53.4799 38.5726 53.4974 38.0175 53.4983 37.4825C53.5149 37.2779 53.4957 37.0952 53.4755 36.895C53.5578 36.7945 53.585 36.6992 53.5736 36.5899C53.5605 36.4623 53.5473 36.3347 53.5333 36.1887C53.5841 36.1467 53.634 36.0864 53.6279 36.0313C53.6638 35.659 53.6839 35.3067 53.7417 34.9692C53.8451 34.1659 54.0035 33.3573 54.1472 32.5871C54.1542 32.4761 54.1997 32.379 54.0771 32.2619C54.0228 32.4516 53.9641 32.6055 53.9256 32.775C53.7925 33.2864 53.6559 33.7611 53.578 34.2664C53.4615 34.7577 53.3836 35.263 53.3048 35.7691C53.2662 35.9387 53.2671 36.1231 53.4221 36.2001C53.4458 36.437 53.4685 36.6564 53.4922 36.8933C53.423 36.937 53.3958 37.0323 53.3845 37.1066L53.3871 37.1083ZM53.4466 36.0515C53.416 36.11 53.4212 36.1651 53.4063 36.2027L53.5526 36.1878C53.5307 36.1529 53.5377 36.0418 53.4466 36.0515ZM54.7102 30.4664L54.6918 30.4681C54.6936 30.4865 54.6568 30.49 54.6585 30.5083C54.6585 30.5083 54.6988 30.5415 54.7172 30.5389L54.7102 30.4664Z" fill="white"/>
<path d="M65.5692 35.5855C65.6647 35.6126 65.7286 35.6983 65.8293 35.7805C65.7085 36.0506 65.6051 36.3006 65.6139 36.5768C65.627 36.7045 65.5649 36.8216 65.486 36.958C65.3311 37.2499 65.134 37.4912 65.0167 37.7981C64.9186 38.1031 64.7995 38.3916 64.641 38.6469C64.2864 39.1618 64.0281 39.7046 63.6717 40.2012C63.374 40.5447 63.155 40.9355 62.817 41.2458C62.6472 41.3918 62.4808 41.5745 62.2925 41.7231C62.0001 41.9373 61.6691 42.1366 61.3039 42.1733C61.1542 42.1514 60.993 42.2048 60.8486 42.238C59.9037 42.3883 59.0675 42.1593 58.268 41.7423C57.6647 41.4346 57.3345 40.9145 57.1279 40.327C56.9852 40.0097 56.895 39.6679 56.8617 39.3401C56.7347 38.6338 56.7557 37.9309 56.8118 37.2062C56.8783 36.4064 57.0447 35.6712 57.2811 34.9098C57.4965 34.2979 57.768 33.6991 58.0237 33.1203C58.2356 32.6562 58.4852 32.2077 58.7339 31.74C58.9458 31.2758 59.2522 30.8396 59.5605 30.4218C59.7032 30.3702 59.8275 30.3212 59.9677 30.2513C59.9361 30.1254 59.8888 30.0197 59.8573 29.8938C60.6296 28.7652 61.4169 27.5982 62.7233 26.821L63.1253 26.7808C63.2733 26.7843 63.4072 26.8263 63.5771 26.8648C63.8205 26.7109 63.9186 26.4067 64.2881 26.4058C64.5473 26.4163 64.74 26.6733 64.9904 26.7773C65.261 26.898 65.5114 27.0011 65.7645 27.1235C65.8319 27.2459 65.8582 27.3167 65.9256 27.4391C65.7925 27.766 65.6813 28.1271 65.5482 28.454C65.2925 29.0327 65.0579 29.628 64.8591 30.2198C64.7864 30.4113 64.6892 30.5503 64.536 30.8606C64.5406 30.7866 64.5441 30.7615 64.5465 30.7854C64.374 31.6325 64.0141 32.4612 63.8573 33.2882C63.1901 33.4473 62.6437 33.3371 62.1568 32.9062C61.8381 32.1273 62.1848 31.3545 62.2715 30.5713C62.2128 30.5407 62.1559 30.5275 62.0797 30.4987C62.0254 30.6884 61.9869 30.858 61.9081 30.9952C61.8512 31.1666 61.733 31.2706 61.6402 31.4463C61.4099 31.9122 61.1603 32.3616 60.9466 32.8065C60.388 33.8582 60.0605 34.9981 59.6734 36.1057C59.6428 36.1642 59.6498 36.2368 59.655 36.2919C59.6384 36.4964 59.6612 36.715 59.5902 36.9256C59.4151 37.5699 59.4633 38.229 59.4204 38.8969C59.4221 39.0997 59.4099 39.3401 59.3993 39.5997C59.4344 39.7623 59.4729 39.9608 59.5482 40.1566C59.627 40.3882 59.6892 40.64 59.7864 40.8699C59.8521 40.9739 59.9545 41.0745 60.0552 41.1566C60.4081 40.9923 60.6437 40.7659 60.9142 40.5167C61.3249 40.1985 61.6682 39.7588 61.9957 39.3384C62.6699 38.5149 63.261 37.6066 63.8328 36.6826C64.0044 36.3705 64.141 36.0803 64.2155 35.7219C64.2627 35.6432 64.2881 35.5304 64.3363 35.4518C64.367 35.3932 64.3853 35.3915 64.4528 35.3294C64.8109 35.4037 65.191 35.4946 65.5692 35.5855ZM61.1761 29.5756C60.9204 29.7854 60.7268 30.0634 60.5736 30.3737C60.3363 30.7662 60.1559 31.1718 59.9571 31.5792C59.3897 32.7243 58.979 33.9639 58.5841 35.165C58.3705 35.7953 58.2146 36.4378 58.1156 37.111C58.0885 37.3898 58.0631 37.6879 58.0762 38C58.1874 38.007 58.2662 38.0542 58.3433 38.0839C58.3888 37.9869 58.4545 37.9065 58.4834 37.8304C58.6524 36.9466 58.9317 36.0523 59.212 35.1755C59.5438 34.2568 59.8556 33.3223 60.3214 32.4455C60.6156 31.8816 60.8871 31.282 61.1787 30.6998C61.2995 30.4296 61.4396 30.1753 61.6585 29.9689C61.7811 29.9016 61.8853 29.8352 62.0254 29.7661C61.7619 29.5345 61.5307 29.4287 61.1761 29.5756Z" fill="white"/>
<path d="M69.8582 38.7299C69.7549 39.5333 69.6717 40.3524 69.5684 41.1558C69.3748 41.2493 69.1629 41.3446 68.9852 41.4171C68.4072 41.3647 68.1971 41.2939 67.6752 40.8856C67.5447 40.327 67.5018 39.723 67.5167 39.132C67.543 37.562 67.7934 36.0252 68.0649 34.5042C68.2523 33.2497 68.5325 32.0049 68.8328 30.7767C68.86 30.6814 68.8512 30.5905 68.86 30.4978C68.8582 30.4795 68.8398 30.4812 68.7978 30.4305C68.747 30.4725 68.7102 30.476 68.6568 30.5004C68.4537 30.6866 68.4029 30.9131 68.3538 31.1578C68.2794 31.5154 68.1848 31.8572 67.8906 32.053C67.1699 34.0618 67.141 34.5068 67.1787 35.2402C67.036 35.2918 66.8591 35.3644 66.6778 35.4011C66.2444 35.3154 65.9221 35.0531 65.6787 34.6537C65.5246 34.4106 65.444 34.1606 65.4142 33.8686C65.3775 33.5032 65.4142 33.1308 65.4904 32.7917C65.6594 32.0923 65.8293 31.393 66.1323 30.7356C66.282 30.3886 66.395 30.045 66.5281 29.7189C66.585 29.5476 66.6761 29.3535 66.8696 29.2609C66.8494 28.8754 67.1121 28.5545 67.3206 28.2381C67.8503 27.447 68.486 26.7931 69.2216 26.2214C69.5263 25.9512 69.9178 25.8009 70.1787 25.6453C70.4712 25.6156 70.6104 25.7126 70.7873 25.8236C71.0894 26.0701 71.4694 26.363 71.7899 26.6077C71.9309 26.7223 72.0386 26.8779 72.1612 26.9941C72.1875 27.2494 72.1927 27.4889 72.1805 27.7293C71.6244 29.7216 71.2812 31.8021 70.8241 33.8582C70.8074 33.8783 70.8311 33.9307 70.8757 34.0006C71.1314 33.9744 71.3565 33.8232 71.5868 33.7262C71.8354 33.6274 72.0824 33.5102 72.3486 33.4097C72.6156 33.3092 72.8617 33.192 73.1507 33.1265C73.4011 33.046 73.6682 32.9455 73.9204 32.8834C74.1708 32.803 74.4213 32.7226 74.712 32.6745C74.8109 32.5539 74.8101 32.3694 74.8521 32.2366C75.0561 31.1465 75.2575 30.0389 75.5001 28.9636C75.6875 28.0781 75.9519 27.2223 76.2549 26.3805C76.3407 26.1322 76.4283 25.9023 76.6953 25.8018C76.9014 25.8915 77.1276 26.0593 77.374 26.3053C77.55 26.3979 77.7435 26.4889 77.9213 26.6008C77.9598 26.6156 78.0053 26.703 78.0675 26.7703C77.9834 27.2214 77.9948 27.6996 77.8582 28.1743C77.7488 28.5537 77.6997 28.9829 77.6121 29.3972C77.4379 30.4104 77.2409 31.3886 77.0833 32.3817C76.9379 33.1335 76.8302 33.9001 76.6463 34.6379C76.3985 35.6581 76.2785 36.666 76.1078 37.7159C75.9335 38.7291 75.7969 39.7571 75.6463 40.8227C75.5587 40.8682 75.4729 40.932 75.3854 40.9783C75.1279 40.9862 74.8845 40.9547 74.6629 40.9591C74.3757 40.8585 74.1577 40.7152 73.9694 40.494C73.9922 39.8095 73.9957 39.1084 74.0552 38.4205C74.1113 37.6958 74.2076 37.0043 74.2654 36.298C74.3249 35.61 74.4966 34.929 74.4957 34.1912C74.2523 34.1606 74.0859 34.3433 73.909 34.4159C73.7321 34.4884 73.5561 34.5802 73.381 34.672C73.1857 34.7472 73.0141 34.8748 72.8381 34.9666C72.6787 35.0383 72.5202 35.1091 72.3591 35.1624C72.1857 35.2717 72.0123 35.3818 71.8381 35.4911C71.6629 35.5829 71.4633 35.6214 71.2365 35.7542C71.0351 35.9588 70.8416 36.2368 70.4712 36.2184C70.2269 36.7228 70.0149 37.555 69.8573 38.7325L69.8582 38.7299ZM68.7444 36.8505C68.9677 35.4081 69.3249 34.0076 69.6822 32.6081C69.9186 31.6622 70.1743 30.7146 70.2811 29.7635C70.3486 29.517 70.3407 29.26 70.3319 28.9838C70.3267 28.9287 70.3004 28.8579 70.2768 28.8046C70.1209 28.7276 70.0246 28.6822 69.9055 28.7871C69.7943 28.9645 69.8127 29.1464 69.8311 29.3291C69.8495 29.5118 69.8678 29.6945 69.8495 29.8807C69.7409 30.629 69.5762 31.3834 69.3722 32.1046C69.1095 32.9787 68.8617 33.8153 68.6559 34.7026C68.4703 35.422 68.3643 36.2071 68.3293 36.9484C68.3188 37.0235 68.3477 37.1311 68.3731 37.2019C68.4659 37.2106 68.5395 37.2036 68.6524 37.229C68.691 37.0594 68.7172 36.9449 68.7444 36.8505Z" fill="white"/>
<path d="M20.4921 7.04897C19.1445 8.06476 17.8494 9.1872 16.6673 10.2957C15.4991 11.5151 14.3363 12.7722 13.4878 14.1018C13.1743 14.5992 12.7286 14.9629 12.2653 15.4804C12.1506 15.7619 11.9667 16.0897 11.8345 16.525C11.6997 16.657 11.3783 16.8135 11.2067 16.9507C11.1077 17.3441 10.9702 17.7419 10.9133 18.1676C10.697 18.5382 10.5876 18.8564 10.4028 19.1851C10.662 19.4159 10.9238 19.3809 11.2504 19.2621C11.8757 19.1021 12.3091 18.9307 12.8976 18.776C13.2986 18.6466 13.7426 18.5487 14.106 18.4246C15.6559 18.0653 17.0885 17.6842 18.6156 17.4412C19.9983 17.2558 21.2969 17.0067 22.6445 17.1299C22.9956 17.1973 23.3844 17.2585 23.6664 17.373C24.5491 17.7104 25.3564 18.0583 26.1165 18.3363C26.7219 19.0654 27.0686 19.8545 27.1568 20.7036C27.0902 21.0541 26.5272 21.3959 26.7689 21.7806C26.2233 22.5376 25.9449 23.2964 25.3573 24.0202C24.5386 25.0036 23.7294 26.0614 22.7181 27.0317C21.3406 28.3937 13.4133 34.0024 11.4685 35.0986C10.9711 35.3416 10.451 35.6528 9.99563 36.0209C9.92383 36.0786 9.83714 36.1153 9.74519 36.1196C9.64712 36.124 9.5508 36.1223 9.45973 36.1196C9.30912 36.117 9.17076 36.1922 9.08582 36.3172C9.04642 36.3758 8.99738 36.4387 8.94922 36.5113C8.88617 36.6066 8.7881 36.6712 8.67601 36.6957C8.41682 36.7534 8.12085 36.8601 7.80298 36.9938C7.56831 37.0865 13.9965 32.9298 13.8608 33.0898C13.7969 33.1649 13.7093 33.2165 13.6121 33.2349C13.0517 33.3441 12.5149 33.456 11.9273 33.6335C11.9011 33.6414 11.873 33.6475 11.8459 33.6501C10.113 33.8363 2.09107 37.7561 0.749563 37.0034C0.734677 36.9947 0.718915 36.9851 0.704904 36.9755C0.295097 36.687 0.000875658 36.3207 0 35.7708C0 35.6799 0.0315237 35.5916 0.0858144 35.5182C0.0858144 35.5173 0.0875658 35.5165 0.0875658 35.5156C0.166375 35.4081 0.290718 35.3425 0.424694 35.3381C0.624344 35.3311 0.749563 35.325 0.880911 35.3469C0.930824 35.3547 0.978985 35.3713 1.02277 35.3958C1.41331 35.6109 1.78284 35.8548 2.1979 36.0689C2.27846 36.1109 2.37128 36.1258 2.46147 36.1109C3.10508 36.0069 3.61121 35.7918 4.14186 35.5086C6.07006 34.5671 14.2566 29.1892 15.8879 28.0213C17.8906 26.5002 19.606 24.8271 21.1673 23.1373C22.2181 21.8951 23.0771 20.6406 23.3503 19.2752C23.4422 19.1108 23.5018 18.9893 23.5569 18.8302C23.5517 18.7926 23.4667 18.7279 23.4475 18.5793C23.106 18.5872 22.8766 18.5793 22.7224 18.5627C21.6436 18.7454 20.7837 18.8599 19.972 19.0444C19.0946 19.3136 18.2557 19.5776 17.535 19.5986C15.7566 20.52 13.8004 20.9719 11.9448 21.5996C11.4913 21.6223 11.028 21.5699 10.542 21.6354C9.06481 21.6809 7.78372 21.2071 6.67426 20.596C6.2233 20.3522 5.78459 19.9177 5.72943 19.5068C5.51402 18.4718 5.54379 17.5565 6.02102 16.581C6.14011 16.3371 6.25482 16.0556 6.29948 15.8222C6.7198 14.7024 7.26708 13.6796 8.21892 12.8308C8.50526 12.4129 8.67952 12.0099 8.97549 11.6664C9.5254 10.9469 10.0061 10.2747 10.6086 9.66275C13.2951 6.72028 16.528 4.16157 20.4562 1.96477C20.9125 1.67629 21.4002 1.34498 21.9834 1.15266C22.9422 0.644768 23.9387 0.131628 25.4808 0.00137585C25.8967 -0.0161076 26.4878 0.132502 27.0289 0.477801C27.6769 0.770649 28.3678 1.09672 28.9781 1.39481C29.1804 1.48135 29.3818 1.56877 29.5464 1.66056C30.5333 2.21216 31.0447 2.90363 30.6419 3.86872C30.5972 4.103 30.5902 4.33116 30.4974 4.49551C30.1935 5.06809 29.9703 5.66777 29.352 6.1678C29.3196 6.77972 28.852 7.26052 28.3039 7.71334C28.0351 7.97734 27.9352 8.37072 27.7417 8.62423C26.8205 9.69684 26.0009 10.6803 25.0753 11.7153C24.176 12.6717 22.9536 13.4803 22.1068 14.5433C22.1121 14.5809 21.8179 14.6578 21.7154 14.7478C20.2005 14.7985 18.7478 15.0311 17.7855 14.0966C18.9878 12.5685 20.2005 11.1148 21.4825 9.6138C22.2119 8.52895 22.9361 7.40651 23.6655 6.32078C23.8871 5.98685 24.2259 5.67652 24.507 5.22107C24.4974 5.14677 24.5421 4.91249 24.5114 4.6887C24.3196 4.67646 24.1226 4.62663 24.0482 4.63712C23.5403 4.81895 23.0692 4.99553 22.5981 5.17299C22.1322 5.95713 21.3336 6.51835 20.4921 7.04897ZM15.1681 9.05258C15.8406 8.39258 16.528 7.84534 17.1681 7.22818C18.1716 6.486 18.8993 5.6669 19.7435 4.87053C19.8459 4.78049 19.8301 4.66859 19.8625 4.62663L19.6007 4.6616C17.4238 6.01657 15.7977 7.79114 14.1515 9.41623C13.7758 9.73269 13.4939 10.1881 13.6191 10.5509C13.5814 10.5562 13.4422 10.6506 13.4422 10.6506C13.4422 10.6506 13.5814 10.5562 13.5771 10.5186C14.0928 10.1077 14.7102 9.60768 15.1681 9.05258Z" fill="#D4145A"/>
<path d="M38.7312 10.7459C38.9615 11.0343 38.8617 11.2389 38.7881 11.4076C38.9475 11.6419 39.071 11.8482 39.2575 12.0466C39.247 12.2075 39.2286 12.3054 39.2181 12.4662C39.261 13.7364 39.1025 14.9375 38.9843 16.1972C38.824 17.6221 38.6909 19.0112 38.5307 20.4352C38.3792 21.9222 38.2943 23.4327 38.3704 24.9529C38.352 25.0508 38.3687 25.1767 38.3538 25.3061C38.0613 25.5045 37.7872 25.6051 37.4501 25.7143C36.8415 25.7004 36.3144 25.5797 35.7654 25.3017C35.4405 24.5482 35.3985 23.7562 35.3599 22.9957C35.2636 22.2753 35.2566 21.5104 35.1787 20.6922C34.8818 20.8592 34.7855 21.0961 34.6226 21.3085C34.4641 21.5533 34.3048 21.7972 34.1419 22.0105C33.979 22.2238 33.7759 22.3785 33.6401 22.5559C33.4186 22.8086 33.2907 23.049 33.12 23.1993C32.5368 23.3733 31.9799 23.5114 31.4238 23.6495C31.2084 23.7099 31.0114 23.6731 30.7522 23.6434C29.9466 23.5918 29.2058 23.3077 28.4878 22.9581C28.0394 22.4755 27.8109 21.9641 27.7041 21.4047C27.4711 20.3836 27.5245 19.3556 27.641 18.3197C27.803 17.1501 28.1042 16.0573 28.4046 14.9646C28.5963 14.4926 28.7618 14.0555 29.2426 13.8317C29.268 13.5415 29.3048 13.3448 29.4098 13.1717C29.5105 12.9671 29.69 12.8788 29.8573 12.697C30.7776 12.8928 31.5631 13.2661 32.3836 13.6665C32.4816 13.6848 32.5298 13.8063 32.5745 13.8964C32.5543 14.6962 32.1235 15.2959 31.965 16.0189C31.8337 16.706 31.6752 17.4289 31.5797 18.1431C31.5508 18.88 31.4869 19.5907 31.4851 20.2927C31.7618 20.4474 31.8074 20.3137 31.9203 20.2027C32.5666 19.5418 33.0114 18.8127 33.4168 18.0251C34.2356 16.5119 34.9878 14.9769 35.768 13.4051C36.0727 12.822 36.2715 12.1576 36.5053 11.5204C36.6428 11.1191 36.8161 10.745 37.1787 10.3464C37.7916 10.3918 38.3319 10.6069 38.7338 10.7441L38.7312 10.7459ZM28.5027 17.1212C28.5053 17.3765 28.5342 17.595 28.5683 17.8459C28.5184 17.9482 28.437 18.0548 28.4492 18.1492C28.5228 18.9369 28.6235 19.6887 28.7329 20.5034C28.7417 20.5663 28.8083 20.5891 28.9273 20.7639C28.7846 19.6991 28.662 18.79 28.5324 17.8188C28.6769 17.7034 28.6909 17.574 28.662 17.3546C28.6331 17.1352 28.6077 16.9472 28.6139 16.7549C28.7496 16.5775 28.8547 16.4035 28.6007 16.1823C28.6034 16.4376 28.6244 16.5941 28.6489 16.782C28.5675 16.8887 28.486 16.9962 28.5027 17.1212ZM29.2513 17.4674C29.2557 17.4988 29.2286 17.5347 29.233 17.5653C29.2601 17.5294 29.2557 17.4988 29.2513 17.4674ZM29.3389 16.6902C29.3661 16.6544 29.3932 16.6194 29.4203 16.5836L29.3573 16.5923C29.3301 16.6282 29.3345 16.6596 29.3389 16.6902ZM29.7268 15.2994C29.8398 15.1884 29.9256 15.1132 30.0657 14.9672C29.8293 14.8711 29.7478 14.9777 29.7373 15.1386L29.7583 15.2951C29.5473 15.3868 29.5683 15.5433 29.5666 15.7671C29.5079 15.8064 29.3906 15.886 29.5412 16.0573C29.5561 15.928 29.5386 15.8021 29.5622 15.7356C29.7382 15.6168 29.7084 15.3982 29.7268 15.2994Z" fill="#D4145A"/>
<path d="M51.4615 23.7134C51.3275 24.1461 51.1358 24.6181 51.2032 25.119C50.754 26.2957 50.2426 27.4802 49.7347 28.6961C49.6515 29.0266 49.3985 29.2836 49.1804 29.5677C48.9983 29.8789 48.9195 30.2408 48.733 30.5206C48.1708 31.3292 47.5771 32.1421 46.6104 32.5583C46.395 32.6186 46.2233 32.7698 46.0167 32.8931C45.3556 32.7261 44.6463 32.9167 43.9142 32.6964C43.8538 32.4813 43.7969 32.2977 43.7487 32.1762C43.8258 32.0381 43.8678 31.8729 43.9177 31.7706C44.4799 30.962 44.9668 30.0677 45.324 29.1586C46.3538 26.5973 46.923 23.938 47.3319 21.2683C47.43 20.8085 47.4965 20.353 47.5946 19.8941C47.634 19.4745 47.6507 19.1213 47.7487 18.6615C47.5648 18.7183 47.4703 18.7306 47.3845 18.8057C46.9414 19.3119 46.4624 19.7901 46.0193 20.2962C45.5718 20.7709 45.0368 21.0655 44.3293 21.0323L44.1095 21.062C43.1533 21.3172 42.3687 20.944 41.5797 20.5392C41.0316 20.2621 40.6944 19.8923 40.4974 19.3766C40.4405 19.193 40.3573 19.0444 40.3126 18.9552C40.1988 17.1527 40.557 15.5424 41.1174 14.0004C41.7128 12.4855 42.5342 11.2275 43.845 10.2869C44.5351 9.71607 45.2592 9.39613 46.3197 9.44596C47.0815 9.88654 47.9414 10.3455 48.7689 11.0317C48.972 10.877 49.1121 10.731 49.3144 10.5763C49.6095 10.6322 49.8958 10.6261 50.1953 10.7135C50.3985 10.5588 50.6095 10.467 50.8398 10.2764C51.317 10.4993 51.8573 10.7144 52.324 11.0981C52.3407 11.2232 52.3494 11.2861 52.3346 11.4155C52.3433 11.4784 52.2619 11.5851 52.247 11.7144C52.4887 12.7984 52.6358 13.8946 52.5902 14.9856C52.5736 15.3388 52.6244 15.7147 52.6393 16.0635C52.6375 16.2872 52.698 16.5023 52.6603 16.6981C52.5141 17.5146 52.5298 18.3424 52.4817 19.1773C52.4755 19.8478 52.3713 20.4999 52.2093 21.1914C52.0736 21.847 51.9782 22.5621 51.874 23.2133C51.7067 23.3952 51.6025 23.5682 51.4624 23.7151L51.4615 23.7134ZM46.1463 13.3894C46.0561 13.4331 46.0018 13.5047 45.9834 13.6027C45.7829 14.0118 45.6095 14.3859 45.4002 14.733C44.9782 15.3956 44.8319 16.2121 44.5482 16.9516C44.3661 17.2628 44.3582 17.6789 44.2829 18.0714C44.3774 18.0592 44.4799 18.109 44.5386 18.0688C44.9317 17.6658 45.3958 17.3161 45.7531 16.8861C46.6585 15.7759 47.6664 14.7164 48.3661 13.5065C48.479 12.9173 48.6542 12.3202 48.578 11.7564C48.2531 11.481 48.0149 11.6087 47.754 11.8027C47.4028 12.0414 46.9887 12.2879 46.5281 12.6682C46.486 12.8334 46.4037 13.1629 46.1463 13.3894ZM51.3827 15.2723C51.3135 15.4725 51.2995 15.6028 51.4545 15.8047C51.4247 15.5853 51.4081 15.4603 51.3827 15.2723Z" fill="#D4145A"/>
<path d="M63.3924 8.59538C63.606 8.75798 63.8197 8.92058 64.0727 9.14262C64.0228 9.72307 63.9414 10.3079 63.8959 10.9207C63.7794 11.9566 63.6857 12.926 63.5614 13.899C63.5307 14.8597 63.3705 15.8065 63.3118 16.803C63.2698 16.9682 63.2365 17.1955 63.4545 17.3896C64.1104 16.0897 64.6918 14.705 65.6822 13.5196C66.2015 13.5773 66.6848 13.6088 67.1927 13.8273C66.8503 14.6071 66.3924 15.2417 65.9431 15.9402C64.8188 17.5574 63.8906 19.2122 63.1953 20.9317C62.8985 21.0987 62.6051 21.298 62.2689 21.4064C61.3635 21.5594 60.5368 21.3513 59.8477 20.742C59.2987 19.9859 59.4598 19.04 59.2076 18.1169C58.5684 19.0636 58.1962 20.1021 56.9458 20.7796C55.7908 21.2211 54.4747 21.1739 53.4265 20.2621C52.8293 19.3853 52.8249 18.3975 52.8915 17.4639C52.9265 16.0565 53.2514 14.6726 53.747 13.3631C54.0036 12.6594 54.2023 11.995 54.6909 11.3552C54.9589 10.9688 55.0421 10.6383 55.3179 10.3149C56.1165 9.12339 57.1682 8.15393 58.8959 7.69936C59.0254 7.71422 59.3792 7.72995 59.7286 7.71596C60.3144 7.79726 60.6682 8.29205 61.2584 8.40394C61.43 8.25358 61.6095 8.16529 61.7496 8.0193C62.2374 8.08137 62.6892 8.11721 63.1804 8.21075C63.268 8.38995 63.3127 8.47999 63.3924 8.59713V8.59538ZM59.2566 10.3918C59.0263 10.5824 58.8635 10.7957 58.7592 10.9688C57.9458 11.8106 57.2829 12.8246 56.916 13.8946C56.4755 15.1333 56.1769 16.4813 55.9685 17.7847C55.9291 18.2043 55.9484 18.5846 55.909 19.0042C55.9134 19.0357 55.9484 19.0627 56.0246 19.1484C56.106 19.0418 56.1603 18.971 56.2461 18.8958C56.9484 17.9412 57.5211 16.9708 58.05 15.9122C58.05 15.9122 58.0456 15.8808 58.0727 15.8458C58.3048 15.4323 58.4423 15.0311 58.5841 14.6613C58.9309 13.913 59.3258 13.2862 59.5114 12.5283C59.6699 11.8054 59.8643 11.1095 60.0228 10.3866C60.0412 10.2887 60.029 10.1943 60.0438 10.0649C60.0754 10.0605 60.1025 10.0255 60.0754 10.0605C60.1025 10.0247 60.0754 10.0605 60.0482 10.0963C59.655 10.0212 59.4773 10.3638 59.2575 10.3936L59.2566 10.3918ZM60.6086 13.5598C60.5211 14.337 60.4922 15.0739 60.4677 15.8432C60.4405 16.3572 60.5036 16.8266 60.7242 17.2759C60.7741 17.1737 60.7619 17.0792 60.7409 16.9228C60.6778 16.4525 60.6734 15.9428 60.6691 15.4332C60.7023 14.7268 60.9361 14.0896 60.7225 13.4488C60.9528 13.2582 60.8643 13.079 60.705 12.8456C60.7347 13.065 60.7592 13.253 60.7575 13.4759C60.6988 13.5152 60.6086 13.5598 60.6086 13.5598ZM61.099 15.7898C61.0552 16.1788 61.043 16.5626 60.9992 16.9516C60.9764 17.4971 61.1253 18.3695 61.3188 18.8538C61.3818 18.8451 61.4755 18.8328 61.543 18.8556C61.6288 18.7804 61.5447 18.6318 61.5237 18.4753C61.4817 18.1623 61.3372 17.7987 61.3617 17.5085C61.3678 16.838 61.2873 16.2427 61.1953 15.5538C61.4212 15.3326 61.2575 15.0669 61.1568 14.7933C61.1945 15.0756 61.2015 15.3615 61.2304 15.5809C61.1761 15.6517 61.1174 15.6919 61.099 15.7898ZM60.8608 12.3465C60.8521 12.2835 60.8354 12.1585 60.8276 12.0956L60.796 12.0999C60.8048 12.1629 60.8214 12.2879 60.8293 12.3508L60.8608 12.3465ZM60.9896 11.4041C60.9852 11.3726 60.9808 11.3412 60.9458 11.3141C60.9458 11.3141 60.8827 11.3228 60.8871 11.3534C60.8915 11.384 60.9265 11.412 60.9309 11.4434C60.9624 11.4391 60.9896 11.4041 60.9896 11.4041ZM61.2505 10.731C61.219 10.7354 61.1918 10.7703 61.1647 10.8062C61.1691 10.8376 61.1419 10.8726 61.1463 10.9041L61.2006 10.8333C61.2277 10.7974 61.2234 10.7668 61.2505 10.731ZM61.9668 10.8272C61.9002 10.8044 61.8057 10.8167 61.7347 10.7625C61.5719 10.9758 61.6279 11.1593 61.6454 11.2843C61.5368 11.4268 61.4554 11.5326 61.6813 11.7896C61.6515 11.5702 61.6621 11.4094 61.641 11.2529C61.8565 11.1926 62.0009 11.078 61.9668 10.8272Z" fill="#D4145A"/>
<path d="M66.9309 7.3558C67.7663 7.6268 68.6384 7.7011 69.4186 8.04378C69.6717 8.26495 69.768 8.50709 69.6804 8.80606C69.6034 9.42235 69.5307 10.0701 69.1901 10.6252C69.289 11.1226 68.8766 11.6235 69.0149 12.1795C69.3284 12.1375 69.3626 11.9103 69.4668 11.7363C69.634 11.5545 69.7654 11.3455 69.9563 11.0964C70.0333 10.9583 70.1962 10.745 70.3678 10.5946C70.4764 10.4521 70.6078 10.2432 70.775 10.0614C70.9423 9.87955 71.0114 9.67936 71.2374 9.45732C71.3372 9.25276 71.4817 9.13737 71.6489 8.95554C71.8162 8.77372 71.9563 8.62773 72.0964 8.48087C72.2636 8.29904 72.395 8.09011 72.5395 7.97472C72.7339 7.75705 72.9642 7.56736 73.0727 7.42487C73.2715 7.23867 73.4431 7.08831 73.6139 6.93795C74.4221 7.24478 75.3652 7.37329 76.106 7.65652C76.613 8.09885 76.4913 8.62511 76.7076 9.04296C76.4974 10.092 76.2505 11.113 76.0482 12.225C75.944 12.8771 75.3319 14.2662 75.9782 14.0843C76.3153 13.9759 78.7759 11.127 79.0456 10.5168C79.184 10.5937 79.7339 10.6479 79.8013 10.6707C79.965 10.9355 79.9274 11.1322 79.8941 11.3595C79.1708 12.6358 77.099 15.5285 75.7295 16.0302C74.7444 16.0661 74.3381 15.8974 73.1078 15.2968C72.6069 14.184 72.698 12.9601 72.7706 11.8342C72.4274 11.6567 72.3442 11.9872 72.1305 11.8246C71.972 12.5475 71.6542 13.0362 71.3363 13.5257C70.3643 15.0905 69.4326 16.7147 68.7409 18.4648C68.6323 18.6073 68.5281 18.7804 68.4589 18.9806C68.31 19.0645 68.1262 19.1204 67.8836 19.2166C67.8293 19.2874 67.81 19.3862 67.7733 19.582C67.8608 19.7612 67.9852 19.9684 68.0815 20.2105C67.7803 20.3469 67.4747 20.4509 67.184 20.4265C66.3153 20.3828 65.5666 20.0366 65.0911 19.1117C64.8022 18.3853 64.8407 17.4866 64.8214 16.6282C64.8459 15.3816 64.9142 14.2242 65.0097 13.0309C65.1025 11.5833 65.2899 10.1234 65.7496 8.78595C65.8792 8.32177 66.0754 7.88118 66.4291 7.41962C66.6489 7.3899 66.7347 7.31472 66.9309 7.35231V7.3558Z" fill="#D4145A"/>
<path d="M19.7759 53.59C20.782 52.9694 18.8923 52.8452 21.5272 51.8522C22.9133 51.402 53.6848 45.1245 54.9309 44.9269C62.6971 43.6218 70.8897 42.2878 78.296 41.2309C80.7882 40.8367 82.6918 40.6514 84.9983 40.3629C85.0412 40.8559 84.254 41.4801 83.4773 42.1418C83.3845 42.1952 82.8766 42.314 82.2873 42.5221C79.5062 43.0387 77.465 43.1305 74.6025 43.7372C73.9685 43.7993 73.3223 43.8246 72.5841 43.9024C71.6612 44.0869 70.5412 44.3412 69.6183 44.5257C69.261 44.4287 68.2934 44.4663 67.8433 44.4217C66.3424 44.8518 65.0377 45.2119 63.4326 45.6578C62.9948 45.6499 62.6603 45.6263 62.2111 45.5817C61.8179 45.7207 61.1025 45.8728 60.3985 46.0607C56.8906 46.6928 24.2724 53.3391 20.338 54C20.085 53.8864 19.9247 53.7203 19.7759 53.59ZM70.1988 43.1428C70.1988 43.1428 69.8862 43.1856 69.8179 43.3464L69.8538 43.4933C70.2706 43.4365 70.4431 43.2616 70.1988 43.1428Z" fill="#D4145A"/>
</g>
</svg>
